<svg width="150" height="150" viewBox="0 0 150 150" fill="none" xmlns="http://www.w3.org/2000/svg">
<g clip-path="url(#clip0_31_4)">
<path d="M138 0H12C5.37258 0 0 5.37258 0 12V138C0 144.627 5.37258 150 12 150H138C144.627 150 150 144.627 150 138V12C150 5.37258 144.627 0 138 0Z" fill="#0E8986"/>
<path d="M15.95 114.34C15.95 113.87 15.97 113.49 16.02 113.2C16.06 112.91 16.16 112.69 16.32 112.54C16.47 112.39 16.69 112.29 16.98 112.24C17.27 112.19 17.65 112.17 18.12 112.17H23.54C24.75 112.17 25.8 112.28 26.7 112.5C27.59 112.72 28.32 113.08 28.89 113.6C29.46 114.12 29.88 114.79 30.16 115.62C30.44 116.45 30.58 117.47 30.58 118.68V128.43C30.58 129.66 30.44 130.68 30.16 131.5C29.88 132.32 29.46 132.99 28.89 133.5C28.32 134.01 27.59 134.38 26.7 134.6C25.81 134.82 24.75 134.93 23.54 134.93H18.12C17.65 134.93 17.27 134.91 16.98 134.86C16.69 134.81 16.47 134.72 16.32 134.56C16.17 134.41 16.07 134.18 16.02 133.9C15.97 133.61 15.95 133.23 15.95 132.76V114.34ZM28.41 118.67C28.41 117.93 28.33 117.28 28.18 116.73C28.03 116.18 27.76 115.73 27.39 115.38C27.02 115.03 26.52 114.77 25.89 114.59C25.26 114.42 24.47 114.33 23.53 114.33H22.99C22.52 114.33 22.14 114.35 21.85 114.4C21.56 114.45 21.34 114.54 21.19 114.7C21.04 114.85 20.94 115.08 20.89 115.36C20.84 115.65 20.82 116.04 20.82 116.52V130.58C20.82 131.05 20.84 131.43 20.89 131.72C20.93 132.01 21.03 132.23 21.19 132.38C21.34 132.53 21.56 132.63 21.84 132.68C22.12 132.73 22.5 132.75 22.99 132.75H23.53C24.47 132.75 25.25 132.67 25.89 132.49C26.53 132.31 27.02 132.06 27.39 131.7C27.76 131.35 28.02 130.9 28.18 130.35C28.34 129.8 28.41 129.15 28.41 128.41V118.66V118.67Z" fill="white"/>
<path d="M32.74 116.5C32.74 115.49 32.78 114.7 32.85 114.12C32.92 113.54 33.1 113.11 33.39 112.82C33.68 112.53 34.11 112.35 34.69 112.28C35.27 112.21 36.06 112.17 37.07 112.17H43.03C43.72 112.17 44.16 112.25 44.36 112.4C44.56 112.55 44.66 112.84 44.66 113.25C44.66 113.66 44.56 113.95 44.36 114.1C44.16 114.25 43.72 114.33 43.03 114.33H37.07C36.6 114.33 36.22 114.35 35.93 114.4C35.64 114.44 35.42 114.54 35.27 114.7C35.12 114.86 35.02 115.08 34.97 115.36C34.92 115.64 34.9 116.03 34.9 116.5V120.29C34.9 120.76 34.92 121.14 34.97 121.43C35.02 121.72 35.11 121.94 35.27 122.09C35.42 122.24 35.65 122.34 35.93 122.39C36.22 122.44 36.6 122.46 37.07 122.46H43.03C43.72 122.46 44.16 122.54 44.36 122.69C44.56 122.84 44.66 123.13 44.66 123.54C44.66 123.95 44.56 124.24 44.36 124.39C44.16 124.54 43.72 124.62 43.03 124.62H39.78C39.31 124.62 38.93 124.64 38.64 124.69C38.35 124.74 38.13 124.83 37.98 124.99C37.83 125.14 37.73 125.37 37.68 125.65C37.63 125.94 37.61 126.32 37.61 126.79V130.58C37.61 131.05 37.63 131.43 37.68 131.72C37.72 132.01 37.82 132.23 37.98 132.38C38.13 132.53 38.35 132.63 38.64 132.68C38.93 132.73 39.31 132.75 39.78 132.75H43.03C43.72 132.75 44.16 132.83 44.36 132.98C44.56 133.13 44.66 133.42 44.66 133.83C44.66 134.24 44.56 134.53 44.36 134.68C44.16 134.83 43.72 134.91 43.03 134.91H37.07C36.06 134.91 35.26 134.87 34.69 134.8C34.12 134.73 33.68 134.55 33.39 134.26C33.1 133.97 32.92 133.54 32.85 132.96C32.78 132.38 32.74 131.59 32.74 130.58V116.5Z" fill="white"/>
<path d="M52.19 131.67C52.5 132.14 52.72 132.43 52.87 132.55C53.01 132.67 53.19 132.73 53.38 132.73C53.57 132.73 53.74 132.69 53.87 132.59C54 132.5 54.19 132.33 54.44 132.08C54.64 131.88 54.77 131.69 54.85 131.5C54.93 131.31 54.96 131.01 54.96 130.59V114.34C54.96 113.87 54.98 113.49 55.03 113.2C55.07 112.91 55.17 112.69 55.33 112.54C55.48 112.39 55.7 112.29 55.99 112.24C56.28 112.19 56.66 112.17 57.13 112.17H57.67C58.14 112.17 58.52 112.19 58.81 112.24C59.1 112.29 59.32 112.38 59.47 112.54C59.62 112.7 59.72 112.92 59.77 113.2C59.81 113.49 59.84 113.87 59.84 114.34V127.61C59.84 128.15 59.8 128.65 59.72 129.1C59.64 129.55 59.41 129.96 59.03 130.32L55.89 133.3C55.26 133.91 54.75 134.36 54.36 134.63C53.97 134.9 53.57 135.04 53.15 135.04C52.9 135.04 52.68 135.01 52.49 134.96C52.3 134.91 52.12 134.82 51.95 134.69C51.78 134.56 51.6 134.39 51.42 134.16C51.24 133.93 51.04 133.65 50.82 133.31L47.92 128.76C47.68 128.4 47.5 128.09 47.36 127.84C47.22 127.59 47.12 127.34 47.03 127.09C46.95 126.85 46.9 126.58 46.87 126.29C46.84 126 46.83 125.63 46.83 125.18V113.8C46.83 113.11 46.91 112.67 47.06 112.47C47.21 112.27 47.5 112.17 47.91 112.17C48.32 112.17 48.61 112.27 48.76 112.47C48.91 112.67 48.99 113.11 48.99 113.8V125.18C48.99 125.54 48.99 125.83 49 126.05C49 126.27 49.04 126.46 49.08 126.63C49.12 126.8 49.19 126.96 49.28 127.12C49.37 127.27 49.49 127.47 49.63 127.7L52.18 131.68L52.19 131.67Z" fill="white"/>
<path d="M71.74 116.5C71.74 115.49 71.78 114.7 71.85 114.12C71.92 113.54 72.1 113.11 72.39 112.82C72.68 112.53 73.11 112.35 73.69 112.28C74.27 112.21 75.06 112.17 76.07 112.17H79.86C80.87 112.17 81.67 112.21 82.24 112.28C82.82 112.35 83.25 112.53 83.54 112.82C83.83 113.11 84.01 113.54 84.08 114.12C84.15 114.7 84.19 115.49 84.19 116.5V117.85C84.19 118.27 84.17 118.6 84.12 118.84C84.08 119.08 83.99 119.27 83.85 119.41C83.71 119.54 83.52 119.64 83.28 119.68C83.04 119.72 82.72 119.75 82.32 119.75H81.21C80.79 119.75 80.46 119.73 80.22 119.68C79.98 119.64 79.79 119.54 79.65 119.41C79.52 119.27 79.42 119.08 79.38 118.84C79.34 118.6 79.31 118.27 79.31 117.85V116.52C79.31 116.03 79.29 115.64 79.24 115.36C79.19 115.08 79.1 114.85 78.94 114.7C78.78 114.55 78.56 114.45 78.28 114.4C77.99 114.36 77.61 114.33 77.14 114.33H76.06C75.59 114.33 75.21 114.35 74.92 114.4C74.63 114.44 74.41 114.54 74.26 114.7C74.11 114.86 74.01 115.08 73.96 115.36C73.91 115.64 73.89 116.03 73.89 116.5V130.58C73.89 131.05 73.91 131.43 73.96 131.72C74 132.01 74.1 132.23 74.26 132.38C74.42 132.53 74.64 132.63 74.92 132.68C75.21 132.72 75.59 132.75 76.06 132.75H79.85C80.32 132.75 80.7 132.73 80.99 132.68C81.28 132.63 81.5 132.54 81.65 132.38C81.8 132.23 81.9 132 81.95 131.72C81.99 131.43 82.02 131.05 82.02 130.58V128.96C82.02 128.62 82.03 128.34 82.06 128.13C82.09 127.92 82.14 127.76 82.21 127.64C82.28 127.52 82.39 127.44 82.52 127.4C82.65 127.36 82.84 127.33 83.08 127.33C83.55 127.33 83.85 127.43 83.99 127.63C84.12 127.83 84.19 128.27 84.19 128.96V130.58C84.19 131.59 84.15 132.39 84.08 132.96C84.01 133.54 83.83 133.97 83.54 134.26C83.25 134.55 82.82 134.73 82.24 134.8C81.66 134.87 80.87 134.91 79.86 134.91H76.07C75.06 134.91 74.26 134.87 73.69 134.8C73.12 134.73 72.68 134.55 72.39 134.26C72.1 133.97 71.92 133.54 71.85 132.96C71.78 132.38 71.74 131.59 71.74 130.58V116.5Z" fill="white"/>
<path d="M98.28 126.8C98.28 126.33 98.26 125.95 98.21 125.66C98.16 125.37 98.06 125.15 97.91 125C97.76 124.85 97.53 124.75 97.25 124.7C96.97 124.65 96.58 124.63 96.11 124.63H93.4C92.93 124.63 92.55 124.65 92.26 124.7C91.97 124.75 91.75 124.84 91.6 125C91.45 125.15 91.35 125.38 91.3 125.66C91.25 125.95 91.23 126.33 91.23 126.8V132.76C91.23 133.23 91.21 133.61 91.16 133.9C91.12 134.19 91.02 134.41 90.86 134.56C90.7 134.71 90.48 134.81 90.2 134.86C89.92 134.91 89.53 134.93 89.06 134.93H88.52C88.05 134.93 87.67 134.91 87.38 134.86C87.09 134.81 86.87 134.72 86.72 134.56C86.57 134.41 86.47 134.18 86.42 133.9C86.37 133.61 86.35 133.23 86.35 132.76V113.53C86.35 112.99 86.43 112.63 86.58 112.45C86.73 112.27 87.02 112.18 87.43 112.18C87.84 112.18 88.13 112.27 88.28 112.45C88.43 112.63 88.51 112.99 88.51 113.53V120.3C88.51 120.77 88.53 121.15 88.58 121.44C88.63 121.73 88.72 121.95 88.88 122.1C89.03 122.25 89.26 122.35 89.54 122.4C89.83 122.45 90.22 122.47 90.7 122.47H96.09C96.56 122.47 96.94 122.45 97.23 122.4C97.52 122.36 97.74 122.26 97.89 122.1C98.04 121.95 98.14 121.73 98.19 121.44C98.23 121.15 98.26 120.77 98.26 120.3V113.53C98.26 112.99 98.34 112.63 98.49 112.45C98.64 112.27 98.93 112.18 99.34 112.18C99.75 112.18 100.04 112.27 100.19 112.45C100.34 112.63 100.42 112.99 100.42 113.53V133.3C100.42 133.99 100.34 134.43 100.19 134.63C100.04 134.83 99.75 134.93 99.34 134.93C98.93 134.93 98.64 134.83 98.49 134.63C98.34 134.43 98.26 133.99 98.26 133.3V126.8H98.28Z" fill="white"/>
<path d="M107.49 132.75C107.49 133.22 107.47 133.6 107.42 133.89C107.38 134.18 107.28 134.4 107.12 134.55C106.96 134.7 106.74 134.8 106.46 134.85C106.18 134.9 105.79 134.92 105.32 134.92H104.78C104.31 134.92 103.93 134.9 103.64 134.85C103.35 134.8 103.13 134.71 102.98 134.55C102.83 134.4 102.73 134.17 102.68 133.89C102.63 133.6 102.61 133.22 102.61 132.75V125.98C102.61 125.64 102.65 125.36 102.72 125.15C102.79 124.94 102.89 124.77 103 124.64C103.12 124.51 103.26 124.4 103.42 124.31C103.58 124.23 103.76 124.15 103.96 124.08C104.14 124.01 104.32 123.94 104.49 123.86C104.66 123.79 104.81 123.68 104.92 123.55C105.04 123.41 105.13 123.24 105.2 123.02C105.27 122.8 105.31 122.52 105.31 122.18V116.49C105.31 115.48 105.35 114.69 105.42 114.11C105.49 113.53 105.67 113.1 105.96 112.81C106.25 112.52 106.68 112.34 107.26 112.27C107.84 112.2 108.63 112.16 109.64 112.16H113.16C114.17 112.16 114.97 112.2 115.54 112.27C116.12 112.34 116.55 112.52 116.84 112.81C117.13 113.1 117.31 113.53 117.38 114.11C117.45 114.69 117.49 115.48 117.49 116.49V133.28C117.49 133.97 117.41 134.41 117.26 134.62C117.11 134.83 116.82 134.93 116.41 134.93C116 134.93 115.71 134.83 115.56 134.62C115.41 134.41 115.33 133.97 115.33 133.28V126.78C115.33 126.31 115.31 125.93 115.26 125.64C115.21 125.35 115.11 125.13 114.96 124.98C114.81 124.83 114.58 124.73 114.3 124.68C114.02 124.63 113.63 124.61 113.16 124.61H109.64C109.17 124.61 108.79 124.63 108.5 124.68C108.21 124.73 107.99 124.83 107.84 124.99C107.69 125.15 107.59 125.38 107.54 125.67C107.49 125.96 107.47 126.35 107.47 126.83V132.73L107.49 132.75ZM115.34 116.5C115.34 116.03 115.32 115.65 115.27 115.36C115.22 115.07 115.12 114.85 114.97 114.7C114.82 114.55 114.59 114.45 114.31 114.4C114.03 114.35 113.64 114.33 113.17 114.33H109.65C109.18 114.33 108.8 114.35 108.51 114.4C108.22 114.45 108 114.54 107.85 114.7C107.7 114.85 107.6 115.08 107.55 115.36C107.5 115.65 107.48 116.03 107.48 116.5V120.29C107.48 120.76 107.5 121.14 107.55 121.43C107.59 121.72 107.69 121.94 107.85 122.09C108 122.24 108.22 122.34 108.51 122.39C108.8 122.44 109.18 122.46 109.65 122.46H113.17C113.64 122.46 114.02 122.44 114.31 122.39C114.6 122.35 114.82 122.25 114.97 122.09C115.12 121.94 115.22 121.72 115.27 121.43C115.31 121.14 115.34 120.76 115.34 120.29V116.5Z" fill="white"/>
<path d="M119.41 113.28C119.41 112.86 119.51 112.58 119.71 112.41C119.91 112.25 120.35 112.17 121.04 112.17H132.96C133.65 112.17 134.09 112.25 134.29 112.41C134.49 112.57 134.59 112.86 134.59 113.28C134.59 113.7 134.49 113.95 134.29 114.11C134.09 114.26 133.65 114.34 132.96 114.34H131.88C131.41 114.34 131.03 114.36 130.74 114.41C130.45 114.45 130.23 114.55 130.08 114.71C129.93 114.87 129.83 115.09 129.78 115.37C129.73 115.65 129.71 116.04 129.71 116.51V132.76C129.71 133.23 129.69 133.61 129.64 133.9C129.6 134.19 129.49 134.41 129.33 134.56C129.17 134.71 128.93 134.81 128.61 134.86C128.29 134.9 127.87 134.93 127.32 134.93C126.77 134.93 126.32 134.91 125.99 134.86C125.66 134.81 125.42 134.72 125.25 134.56C125.08 134.41 124.96 134.18 124.91 133.9C124.86 133.61 124.83 133.23 124.83 132.76V116.51C124.83 116.04 124.81 115.66 124.76 115.37C124.71 115.08 124.62 114.86 124.46 114.71C124.3 114.56 124.08 114.46 123.8 114.41C123.51 114.37 123.13 114.34 122.66 114.34H121.04C120.35 114.34 119.91 114.26 119.71 114.11C119.51 113.96 119.41 113.68 119.41 113.28Z" fill="white"/>
<path d="M35.95 36.2101C35.81 36.7201 35.67 37.1101 35.53 37.4001C35.39 37.6901 35.24 37.9101 35.07 38.0501C34.9 38.2001 34.68 38.2801 34.42 38.3201C34.16 38.3601 33.83 38.3701 33.43 38.3701H32.29C31.82 38.3701 31.44 38.3501 31.15 38.3001C30.86 38.2601 30.64 38.1601 30.49 38.0001C30.34 37.8501 30.24 37.6301 30.19 37.3401C30.14 37.0501 30.12 36.6701 30.12 36.2001V17.8001C30.12 17.3301 30.14 16.9501 30.19 16.6601C30.23 16.3701 30.33 16.1501 30.49 16.0001C30.64 15.8501 30.86 15.7501 31.15 15.7001C31.44 15.6501 31.82 15.6301 32.29 15.6301H32.83C33.3 15.6301 33.68 15.6501 33.97 15.7001C34.26 15.7501 34.48 15.8401 34.63 16.0001C34.78 16.1601 34.88 16.3801 34.93 16.6601C34.97 16.9501 35 17.3301 35 17.8001V30.2601C35 30.6901 35.08 30.9101 35.24 30.9101C35.33 30.9101 35.4 30.8701 35.46 30.8001C35.51 30.7301 35.58 30.5701 35.65 30.3101L36.9 26.1401C37.04 25.6201 37.24 25.2401 37.5 25.0001C37.75 24.7701 38.02 24.6501 38.31 24.6501C38.56 24.6501 38.81 24.7501 39.07 24.9501C39.33 25.1501 39.54 25.4401 39.72 25.8201L44.19 35.4301C44.42 35.9201 44.69 36.1601 45 36.1601C45.16 36.1601 45.3 36.0801 45.41 35.9201C45.52 35.7601 45.57 35.5001 45.57 35.1301V17.2601C45.57 16.5701 45.65 16.1301 45.8 15.9301C45.95 15.7301 46.24 15.6301 46.65 15.6301C47.06 15.6301 47.35 15.7301 47.5 15.9301C47.65 16.1301 47.73 16.5701 47.73 17.2601V36.2201C47.73 36.6901 47.71 37.0701 47.66 37.3601C47.61 37.6501 47.51 37.8701 47.36 38.0201C47.21 38.1701 46.98 38.2701 46.7 38.3201C46.41 38.3701 46.03 38.3901 45.56 38.3901H44.64C44.26 38.3901 43.97 38.3801 43.76 38.3501C43.55 38.3201 43.38 38.2601 43.25 38.1501C43.12 38.0401 42.99 37.8801 42.87 37.6801C42.75 37.4701 42.61 37.1801 42.45 36.8001L38.66 28.6501C38.57 28.5101 38.48 28.4301 38.39 28.4301C38.3 28.4301 38.23 28.5101 38.17 28.6701L35.95 36.2301V36.2101ZM42.59 20.2301C42.59 20.7001 42.57 21.0801 42.52 21.3701C42.48 21.6601 42.38 21.8801 42.22 22.0301C42.06 22.1801 41.84 22.2801 41.56 22.3301C41.27 22.3801 40.89 22.4001 40.42 22.4001H39.88C39.41 22.4001 39.03 22.3801 38.74 22.3301C38.45 22.2901 38.23 22.1901 38.08 22.0301C37.93 21.8701 37.83 21.6601 37.78 21.3701C37.74 21.0801 37.71 20.7001 37.71 20.2301V17.7901C37.71 17.3201 37.73 16.9401 37.78 16.6501C37.82 16.3601 37.92 16.1401 38.08 15.9901C38.24 15.8401 38.46 15.7401 38.74 15.6901C39.03 15.6501 39.41 15.6201 39.88 15.6201H40.42C40.89 15.6201 41.27 15.6401 41.56 15.6901C41.85 15.7301 42.07 15.8301 42.22 15.9901C42.37 16.1501 42.47 16.3701 42.52 16.6501C42.56 16.9401 42.59 17.3201 42.59 17.7901V20.2301Z" fill="white"/>
<path d="M49.9 19.9601C49.9 18.9501 49.94 18.1501 50.01 17.5801C50.08 17.0101 50.26 16.5701 50.55 16.2801C50.84 15.9901 51.27 15.8101 51.85 15.7401C52.43 15.6701 53.22 15.6301 54.23 15.6301H60.19C60.88 15.6301 61.32 15.7101 61.52 15.8601C61.72 16.0101 61.82 16.3001 61.82 16.7101C61.82 17.1201 61.72 17.4101 61.52 17.5601C61.32 17.7101 60.88 17.7901 60.19 17.7901H54.23C53.76 17.7901 53.38 17.8101 53.09 17.8601C52.8 17.9101 52.58 18.0001 52.43 18.1601C52.28 18.3101 52.18 18.5401 52.13 18.8201C52.09 19.1101 52.06 19.4901 52.06 19.9601V23.7501C52.06 24.2201 52.08 24.6001 52.13 24.8901C52.17 25.1801 52.27 25.4001 52.43 25.5501C52.59 25.7001 52.81 25.8001 53.09 25.8501C53.38 25.8901 53.76 25.9201 54.23 25.9201H60.19C60.88 25.9201 61.32 26.0001 61.52 26.1501C61.72 26.3001 61.82 26.5901 61.82 27.0001C61.82 27.4101 61.72 27.7001 61.52 27.8501C61.32 28.0001 60.88 28.0801 60.19 28.0801H56.94C56.47 28.0801 56.09 28.1001 55.8 28.1501C55.51 28.2001 55.29 28.3001 55.14 28.4501C54.99 28.6001 54.89 28.8301 54.84 29.1101C54.79 29.4001 54.77 29.7801 54.77 30.2501V34.0401C54.77 34.5101 54.79 34.8901 54.84 35.1801C54.88 35.4701 54.98 35.6901 55.14 35.8401C55.29 35.9901 55.51 36.0901 55.8 36.1401C56.09 36.1901 56.47 36.2101 56.94 36.2101H60.19C60.88 36.2101 61.32 36.2901 61.52 36.4401C61.72 36.5901 61.82 36.8801 61.82 37.2901C61.82 37.7001 61.72 37.9901 61.52 38.1401C61.32 38.2901 60.88 38.3701 60.19 38.3701H54.23C53.22 38.3701 52.42 38.3301 51.85 38.2601C51.27 38.1901 50.84 38.0101 50.55 37.7201C50.26 37.4301 50.08 37.0001 50.01 36.4201C49.94 35.8401 49.9 35.0501 49.9 34.0401V19.9601Z" fill="white"/>
<path d="M63.98 19.9601C63.98 18.9501 64.02 18.1501 64.09 17.5801C64.16 17.0101 64.34 16.5701 64.63 16.2801C64.92 15.9901 65.35 15.8101 65.93 15.7401C66.51 15.6701 67.3 15.6301 68.31 15.6301H74.27C74.96 15.6301 75.4 15.7101 75.6 15.8601C75.8 16.0101 75.9 16.3001 75.9 16.7101C75.9 17.1201 75.8 17.4101 75.6 17.5601C75.4 17.7101 74.96 17.7901 74.27 17.7901H68.31C67.84 17.7901 67.46 17.8101 67.17 17.8601C66.88 17.9101 66.66 18.0001 66.51 18.1601C66.36 18.3101 66.26 18.5401 66.21 18.8201C66.17 19.1101 66.14 19.4901 66.14 19.9601V23.7501C66.14 24.2201 66.16 24.6001 66.21 24.8901C66.25 25.1801 66.35 25.4001 66.51 25.5501C66.67 25.7001 66.89 25.8001 67.17 25.8501C67.46 25.8901 67.84 25.9201 68.31 25.9201H74.27C74.96 25.9201 75.4 26.0001 75.6 26.1501C75.8 26.3001 75.9 26.5901 75.9 27.0001C75.9 27.4101 75.8 27.7001 75.6 27.8501C75.4 28.0001 74.96 28.0801 74.27 28.0801H71.02C70.55 28.0801 70.17 28.1001 69.88 28.1501C69.59 28.2001 69.37 28.3001 69.22 28.4501C69.07 28.6001 68.97 28.8301 68.92 29.1101C68.87 29.4001 68.85 29.7801 68.85 30.2501V34.0401C68.85 34.5101 68.87 34.8901 68.92 35.1801C68.96 35.4701 69.06 35.6901 69.22 35.8401C69.37 35.9901 69.59 36.0901 69.88 36.1401C70.17 36.1901 70.55 36.2101 71.02 36.2101H74.27C74.96 36.2101 75.4 36.2901 75.6 36.4401C75.8 36.5901 75.9 36.8801 75.9 37.2901C75.9 37.7001 75.8 37.9901 75.6 38.1401C75.4 38.2901 74.96 38.3701 74.27 38.3701H68.31C67.3 38.3701 66.5 38.3301 65.93 38.2601C65.35 38.1901 64.92 38.0101 64.63 37.7201C64.34 37.4301 64.16 37.0001 64.09 36.4201C64.02 35.8401 63.98 35.0501 63.98 34.0401V19.9601Z" fill="white"/>
<path d="M88.63 30.2601C88.63 29.7901 88.61 29.4101 88.56 29.1201C88.52 28.8301 88.42 28.6101 88.26 28.4601C88.11 28.3101 87.88 28.2101 87.6 28.1601C87.31 28.1201 86.93 28.0901 86.46 28.0901H85.11C84.64 28.0901 84.26 28.1101 83.97 28.1601C83.68 28.2101 83.46 28.3101 83.31 28.4601C83.16 28.6101 83.06 28.8401 83.01 29.1201C82.96 29.4101 82.94 29.7901 82.94 30.2601V36.2201C82.94 36.6901 82.92 37.0701 82.87 37.3601C82.83 37.6501 82.73 37.8701 82.57 38.0201C82.42 38.1701 82.19 38.2701 81.91 38.3201C81.62 38.3701 81.24 38.3901 80.77 38.3901H80.23C79.76 38.3901 79.38 38.3701 79.09 38.3201C78.8 38.2801 78.58 38.1801 78.43 38.0201C78.28 37.8701 78.18 37.6501 78.13 37.3601C78.08 37.0701 78.06 36.6901 78.06 36.2201V17.2601C78.06 16.5701 78.14 16.1301 78.29 15.9301C78.44 15.7301 78.73 15.6301 79.14 15.6301C79.55 15.6301 79.84 15.7301 79.99 15.9301C80.14 16.1301 80.22 16.5701 80.22 17.2601V23.7601C80.22 24.4501 80.38 24.8401 80.71 24.9401C81.04 25.0401 81.47 24.8301 82.01 24.3001L89.97 16.6901C90.17 16.5101 90.34 16.3501 90.5 16.2201C90.65 16.0801 90.82 15.9801 90.99 15.9101C91.16 15.8401 91.35 15.7801 91.56 15.7501C91.77 15.7101 92.02 15.7001 92.33 15.7001C92.75 15.7001 93.02 15.7601 93.16 15.8801C93.29 16.0001 93.36 16.1301 93.36 16.2701C93.36 16.4901 93.19 16.7701 92.85 17.1101L85.29 24.3101C84.71 24.8501 84.44 25.2601 84.48 25.5301C84.52 25.8001 84.95 25.9401 85.78 25.9401H91.33C91.8 25.9401 92.17 25.9601 92.45 26.0101C92.73 26.0601 92.95 26.1501 93.1 26.3101C93.25 26.4601 93.36 26.6901 93.41 26.9701C93.46 27.2601 93.49 27.6401 93.49 28.1101V36.2301C93.49 36.7001 93.47 37.0801 93.42 37.3701C93.38 37.6601 93.28 37.8801 93.12 38.0301C92.97 38.1801 92.74 38.2801 92.46 38.3301C92.17 38.3801 91.79 38.4001 91.32 38.4001H90.78C90.31 38.4001 89.93 38.3801 89.64 38.3301C89.35 38.2901 89.13 38.1901 88.98 38.0301C88.83 37.8801 88.73 37.6601 88.68 37.3701C88.63 37.0801 88.61 36.7001 88.61 36.2301V30.2701L88.63 30.2601Z" fill="white"/>
<path d="M97.84 38.3801C97.37 38.3801 96.99 38.3601 96.7 38.3101C96.41 38.2701 96.19 38.1701 96.04 38.0101C95.89 37.8601 95.79 37.6401 95.74 37.3501C95.69 37.0601 95.67 36.6801 95.67 36.2101V29.7101C95.67 29.3701 95.71 29.0901 95.78 28.8801C95.85 28.6701 95.95 28.5001 96.06 28.3701C96.17 28.2401 96.32 28.1301 96.48 28.0401C96.64 27.9601 96.82 27.8801 97.02 27.8101C97.2 27.7401 97.38 27.6701 97.55 27.5901C97.72 27.5201 97.87 27.4101 97.98 27.2801C98.1 27.1401 98.19 26.9701 98.26 26.7501C98.33 26.5301 98.37 26.2501 98.37 25.9101V17.2401C98.37 16.5501 98.45 16.1101 98.6 15.9101C98.75 15.7101 99.04 15.6101 99.45 15.6101C99.86 15.6101 100.15 15.7101 100.3 15.9101C100.45 16.1101 100.53 16.5501 100.53 17.2401V34.0301C100.53 34.5001 100.55 34.8801 100.6 35.1701C100.64 35.4601 100.74 35.6801 100.9 35.8301C101.05 35.9801 101.27 36.0801 101.56 36.1301C101.85 36.1801 102.23 36.2001 102.7 36.2001H105.95C106.64 36.2001 107.08 36.2801 107.28 36.4401C107.48 36.6001 107.58 36.9001 107.58 37.3301C107.58 37.7101 107.48 37.9801 107.28 38.1301C107.08 38.2801 106.64 38.3601 105.95 38.3601H97.83L97.84 38.3801Z" fill="white"/>
<path d="M122.05 24.2201C122.05 24.4901 122.04 24.7201 122.01 24.9001C121.98 25.0801 121.93 25.2401 121.86 25.3901C121.79 25.5401 121.68 25.6801 121.52 25.8401C121.37 25.9901 121.17 26.1601 120.94 26.3401L119.34 27.5301C118.92 27.8401 118.64 28.1801 118.47 28.5501C118.31 28.9201 118.22 29.3201 118.2 29.7601V36.2301C118.2 36.7001 118.18 37.0801 118.13 37.3701C118.09 37.6601 117.99 37.8801 117.83 38.0301C117.68 38.1801 117.45 38.2801 117.17 38.3301C116.88 38.3801 116.5 38.4001 116.03 38.4001H115.49C115.02 38.4001 114.64 38.3801 114.35 38.3301C114.06 38.2901 113.84 38.1901 113.69 38.0301C113.54 37.8801 113.44 37.6601 113.39 37.3701C113.34 37.0801 113.32 36.7001 113.32 36.2301V29.8901C113.32 29.4201 113.23 28.9901 113.06 28.5901C112.89 28.1901 112.6 27.8401 112.18 27.5301L110.58 26.3401C110.33 26.1601 110.13 25.9901 109.98 25.8401C109.84 25.6901 109.73 25.5401 109.65 25.3901C109.57 25.2401 109.53 25.0801 109.5 24.9001C109.47 24.7201 109.46 24.4901 109.46 24.2201V17.2601C109.46 16.5701 109.54 16.1301 109.69 15.9301C109.84 15.7301 110.13 15.6301 110.54 15.6301C110.95 15.6301 111.24 15.7301 111.39 15.9301C111.54 16.1301 111.62 16.5701 111.62 17.2601V22.9201C111.62 23.5501 111.66 24.0001 111.73 24.2601C111.8 24.5201 111.94 24.7301 112.14 24.9001L114.12 26.4701C114.45 26.7201 114.73 26.9001 114.97 27.0001C115.21 27.1001 115.47 27.1501 115.74 27.1501C116.01 27.1501 116.27 27.1001 116.51 27.0001C116.75 26.9001 117.04 26.7301 117.36 26.4701L119.34 24.9001C119.54 24.7401 119.67 24.5301 119.75 24.2601C119.82 24.0001 119.86 23.5501 119.86 22.9201V17.2601C119.86 16.5701 119.94 16.1301 120.09 15.9301C120.24 15.7301 120.53 15.6301 120.94 15.6301C121.35 15.6301 121.64 15.7301 121.79 15.9301C121.94 16.1301 122.02 16.5701 122.02 17.2601V24.2201H122.05Z" fill="white"/>
<path d="M76.686 80.5569H69.3232H61.9604C57.4874 80.5569 54.6729 84.2509 54.6729 88.8997V100.308H59.6987V90.2316C59.6987 89.7541 60.0757 89.4526 60.4777 89.4526C60.9552 89.4526 61.2567 89.7541 61.2567 90.2316V100.283H77.4147V90.2316C77.4147 89.7541 77.7917 89.4526 78.1937 89.4526C78.6712 89.4526 78.9727 89.8295 78.9727 90.2316V100.283H83.9985V88.95C84.0739 84.276 81.2343 80.5569 76.686 80.5569Z" fill="#0E8986" stroke="#F5F5F5"/>
<path d="M35.7253 66.7837C39.0574 66.7837 41.7593 69.4848 41.7594 72.8169C41.7594 76.1491 39.0575 78.8511 35.7253 78.8511C32.3932 78.8509 29.6921 76.149 29.6921 72.8169C29.6923 69.4849 32.3933 66.7839 35.7253 66.7837Z" fill="#0E8986" stroke="#F5F5F5"/>
<path d="M28.2871 81.0066H42.9883C45.1012 81.0067 46.8017 81.8708 47.9727 83.2742C49.076 84.5968 49.727 86.4216 49.7744 88.4978L49.7754 88.9167V99.7576H45.75V90.2068C45.75 89.5609 45.2554 88.9276 44.4707 88.9275C43.8248 88.9275 43.1914 89.422 43.1914 90.2068V99.7576H28.0332V90.2068C28.0332 89.8613 27.9224 89.5296 27.6768 89.2839C27.4312 89.0385 27.1002 88.9276 26.7549 88.9275C26.109 88.9275 25.4756 89.422 25.4756 90.2068V99.7576H21.5V88.8494C21.5 86.6227 22.1744 84.657 23.3496 83.2566C24.5184 81.8639 26.2003 81.0067 28.2871 81.0066Z" fill="#0E8986" stroke="#F5F5F5"/>
<path d="M69.3228 66.7837C72.6652 66.7837 75.3568 69.4746 75.357 72.8169C75.357 76.1593 72.6653 78.8511 69.3228 78.8511C65.9806 78.8509 63.2896 76.1592 63.2896 72.8169C63.2898 69.4747 65.9807 66.7839 69.3228 66.7837Z" fill="#0E8986" stroke="#F5F5F5"/>
<path d="M44.0932 50.5C47.4254 50.5 50.1272 53.2011 50.1274 56.5332C50.1274 59.8654 47.4255 62.5674 44.0932 62.5674C40.7612 62.5672 38.06 59.8653 38.06 56.5332C38.0602 53.2012 40.7613 50.5002 44.0932 50.5Z" fill="#0E8986" stroke="#F5F5F5"/>
<path d="M61.759 50.5C65.0911 50.5 67.7929 53.2011 67.7931 56.5332C67.7931 59.8654 65.0912 62.5674 61.759 62.5674C58.4269 62.5672 55.7258 59.8653 55.7258 56.5332C55.7259 53.2012 58.427 50.5002 61.759 50.5Z" fill="#0E8986" stroke="#F5F5F5"/>
<path d="M52.9638 66.7837C56.2959 66.7837 58.9978 69.4848 58.998 72.8169C58.998 76.1491 56.296 78.8511 52.9638 78.8511C49.6317 78.8509 46.9306 76.149 46.9306 72.8169C46.9308 69.4849 49.6318 66.7839 52.9638 66.7837Z" fill="#0E8986" stroke="#F5F5F5"/>
<g clip-path="url(#clip1_31_4)">
<path d="M128.874 51.1482C129.27 51.1482 129.59 50.8276 129.59 50.4319V46.7163C129.59 46.3206 129.27 46 128.874 46H87.1259C86.7304 46 86.4096 46.3206 86.4096 46.7163V50.4319C86.4096 50.8276 86.7304 51.1482 87.1259 51.1482H88.48V73.47H87.1259C86.7304 73.47 86.4096 73.7906 86.4096 74.1863V77.9018C86.4096 78.2976 86.7304 78.6182 87.1259 78.6182H107.284V80.8244L99.4659 88.7816C99.1887 89.0639 99.1927 89.5175 99.475 89.7946C99.7571 90.0722 100.211 90.0678 100.488 89.7855L103.26 86.9643H112.74L115.512 89.7855C115.789 90.0678 116.243 90.0718 116.525 89.7946C116.807 89.5173 116.811 89.0637 116.534 88.7816L108.716 80.8244V78.6182H128.874C129.27 78.6182 129.59 78.2976 129.59 77.9018V74.1863C129.59 73.7906 129.27 73.47 128.874 73.47H127.52V51.1482H128.874ZM111.333 85.5316H104.667L108 82.1394L111.333 85.5316ZM128.158 74.9025V77.1854H87.8423V74.9025H89.1963H126.804H128.158ZM89.9127 73.4698V51.1482H126.087V73.4698H89.9127ZM87.8423 49.7155V47.4327H128.158V49.7155C126.011 49.7155 89.8357 49.7155 87.8423 49.7155Z" fill="#F5F5F5"/>
</g>
</g>
<defs>
<clipPath id="clip0_31_4">
<rect width="150" height="150" fill="white"/>
</clipPath>
<clipPath id="clip1_31_4">
<rect width="44" height="44" fill="white" transform="translate(86 46)"/>
</clipPath>
</defs>
</svg>
