<svg xmlns="http://www.w3.org/2000/svg" height="71" viewBox="0 0 177 71" width="177"><g fill="#f48023"><path d="m46.434 42.0728v16.9484h-39.92225v-16.9484h-6.013947v22.9623h51.938597v-22.9623z"/><path d="m12.0101 53.554h28.9452v-5.4672h-28.9452zm.5786-13.075 28.1171 5.9011 1.1571-5.6118-28.1172-5.9011zm3.7026-13.48 26.0344 12.1494 2.4299-5.2069-26.0344-12.1493zm7.2318-12.7857 22.1003 18.3976 3.7026-4.3969-22.1581-18.39761zm14.2321-13.595701-4.6283 3.413391 17.1248 23.08371 4.6283-3.4133z"/><path d="m140.533 51.5072-8.246 19.1104h-3.904l3.082-7.0894-5.188-12.021h3.93l3.211 8.2966 3.185-8.2966z"/><path d="m126.453 58.6479h-8.887c-.077 2.0549 1.284 3.6731 3.956 3.6731 1.361 0 2.466-.5137 3.339-1.2586l1.233 1.8751c-1.182 1.31-3.134 2.2603-5.291 2.2603-4.316 0-7.038-3.108-7.038-6.9352 0-3.8786 2.799-7.038 6.704-7.038 3.878 0 6.575 3.2878 5.984 7.4233zm-3.493-2.4402c0-1.387-.925-2.3374-2.414-2.3374-1.156 0-2.389.7449-2.749 2.3374z"/><path d="m114.479 51.5072-5.806 13.4595h-2.568l-5.805-13.4595h3.93l3.159 8.1681 3.16-8.1681z"/><path d="m98.8014 51.2246c.3082 0 .9504.0771 1.2586.2055v6.3958h-1.1816l-1.8237-3.1337c-.7449.2569-1.4127 1.2073-1.4127 2.3632v7.8599h-3.7245v-13.4081h1.1045l1.5412 1.8237c.8476-1.2073 2.286-2.1063 4.2382-2.1063z"/><path d="m77.4992 51.5072h3.7245v7.9626c0 1.7981.7705 2.5943 2.2603 2.5943 1.2587 0 2.4402-1.0531 2.5943-1.9264v-8.6305h3.7245v13.4081h-1.1045l-1.5412-1.8237c-.9503 1.1045-2.4658 2.1062-4.5207 2.1062-3.3392 0-5.1372-2.2347-5.1372-5.317z"/><path d="m76.2197 59.9836c0 3.3392-2.62 5.2142-5.651 5.2142-2.209 0-4.3409-.8219-5.805-2.1833l1.2586-2.5172c1.5925 1.1045 3.0053 1.5925 4.418 1.5925 1.2329 0 2.132-.5651 2.132-1.798 0-1.1816-1.644-1.798-3.5447-2.6713-2.0292-.9504-3.93-2.3889-3.93-5.1886 0-2.9026 2.4402-4.9318 5.5482-4.9318 1.8751 0 3.7502.822 5.1629 2.2861l-1.1816 2.4145c-1.5154-1.1302-2.7484-1.5926-3.8786-1.5926-1.2072 0-2.0292.6422-2.0292 1.6696 0 1.0532 1.0789 1.6183 2.4659 2.2347 2.4145 1.0789 5.0345 2.2347 5.0345 5.4712z"/><path d="m174.801 29.3746c.308 0 .951.0771 1.259.2055v6.3958h-1.182l-1.824-3.1337c-.744.2569-1.412 1.2073-1.412 2.3632v7.8599h-3.725v-13.4081h1.105l1.541 1.8237c.848-1.2073 2.286-2.1063 4.238-2.1063z"/><path d="m166.347 36.7979h-8.887c-.077 2.0549 1.284 3.6731 3.955 3.6731 1.362 0 2.466-.5137 3.34-1.2586l1.233 1.8751c-1.182 1.31-3.134 2.2603-5.292 2.2603-4.315 0-7.038-3.108-7.038-6.9352 0-3.8786 2.8-7.038 6.704-7.038 3.879 0 6.576 3.2878 5.985 7.4233zm-3.493-2.4402c0-1.387-.925-2.3374-2.415-2.3374-1.155 0-2.388.7449-2.748 2.3374z"/><path d="m152.903 36.3612c0 3.9557-2.697 6.9866-6.139 6.9866-1.181 0-2.414-.5394-3.031-1.1815v6.6013h-3.724v-19.1104h1.104l1.336 1.6952c1.053-1.2072 2.62-1.9778 4.315-1.9778 3.442 0 6.139 3.031 6.139 6.9866zm-3.801 0c0-2.3117-1.156-4.0584-2.775-4.0584-1.618 0-2.774 1.7467-2.774 4.0584 0 2.3118 1.156 4.0584 2.774 4.0584 1.619 0 2.775-1.7466 2.775-4.0584z"/><path d="m138.605 36.3612c0 3.8786-2.903 6.9866-6.679 6.9866-3.775 0-6.678-3.108-6.678-6.9866s2.903-6.9866 6.678-6.9866c3.776 0 6.679 3.108 6.679 6.9866zm-3.802 0c0-2.3117-1.233-4.0584-2.877-4.0584-1.643 0-2.876 1.7467-2.876 4.0584 0 2.3118 1.233 4.0584 2.876 4.0584 1.644 0 2.877-1.7466 2.877-4.0584z"/><path d="m123.826 43.0653h-3.724v-19.9838h3.724z"/><path d="m118.532 36.7979h-8.887c-.078 2.0549 1.284 3.6731 3.955 3.6731 1.362 0 2.466-.5137 3.339-1.2586l1.233 1.8751c-1.181 1.31-3.133 2.2603-5.291 2.2603-4.315 0-7.038-3.108-7.038-6.9352 0-3.8786 2.8-7.038 6.704-7.038 3.879 0 6.576 3.2878 5.985 7.4233zm-3.493-2.4402c0-1.387-.925-2.3374-2.415-2.3374-1.156 0-2.389.7449-2.748 2.3374z"/><path d="m106.557 29.6572-5.805 13.4595h-2.5687l-5.8051-13.4595h3.93l3.1594 8.1681 3.1594-8.1681z"/><path d="m92.8057 36.7979h-8.8874c-.0771 2.0549 1.2843 3.6731 3.9556 3.6731 1.3614 0 2.4659-.5137 3.3392-1.2586l1.233 1.8751c-1.1816 1.31-3.1337 2.2603-5.2914 2.2603-4.3152 0-7.038-3.108-7.038-6.9352 0-3.8786 2.7998-7.038 6.7041-7.038 3.8786 0 6.5757 3.2878 5.9849 7.4233zm-3.4933-2.4402c0-1.387-.9247-2.3374-2.4145-2.3374-1.1559 0-2.3888.7449-2.7484 2.3374z"/><path d="m79.302 34.5118c0 5.2657-3.1337 8.5535-7.7058 8.5535h-5.8564v-17.1326h5.8307c4.5464 0 7.7315 3.3135 7.7315 8.5791zm-3.8015 0c0-3.7244-1.5926-5.6509-3.93-5.6509h-2.0292v11.2762h2.0292c2.3374 0 3.93-1.9008 3.93-5.6253z"/><path d="m113.632 15.7442c0 3.3135-2.646 5.7536-6.062 5.7536-2.492 0-4.135-1.0531-5.471-2.6199l1.515-2.2604c.848.9504 2.004 1.8494 3.545 1.8494 1.49 0 2.8-.9504 2.8-2.7227 0-1.5155-1.207-2.4145-2.62-2.4145-1.182 0-2.004.6935-2.415 1.2586l-1.721-.7192v-9.78642h9.812v2.9539h-6.627v3.64742c.257-.1284 1.105-.3853 1.85-.3853 3.416 0 5.394 2.62 5.394 5.4455z"/><path d="m101.488 21.2153h-11.019v-1.9008l3.9043-4.4437c1.6183-1.8237 3.2879-3.9299 3.2879-5.6509 0-1.43842-1.0532-2.33744-2.4402-2.33744-1.0532 0-2.1577.69353-2.8512 2.18332l-2.2347-1.41273c.9504-2.26038 3.0824-3.85291 5.5482-3.85291 3.2622 0 5.8047 2.10625 5.8047 5.23995 0 2.72271-1.9004 4.70051-4.1864 7.01231l-2.1834 2.209h6.3698z"/><path d="m83.3544 3.80014c3.8786 0 6.4215 4.00702 6.4215 8.86166 0 4.8547-2.5429 8.836-6.4215 8.836s-6.4215-3.9813-6.4215-8.836c0-4.85464 2.5429-8.86166 6.4215-8.86166zm2.62 8.86166c0-4.007-1.1302-5.77934-2.62-5.77934-1.4641 0-2.62 1.77234-2.62 5.77934 0 3.9557 1.1559 5.7537 2.62 5.7537 1.4898 0 2.62-1.798 2.62-5.7537z"/><path d="m75.9628 21.2153h-11.0193v-1.9008l3.9043-4.4437c1.6182-1.8237 3.2878-3.9299 3.2878-5.6509 0-1.43842-1.0531-2.33744-2.4402-2.33744-1.0531 0-2.1576.69353-2.8511 2.18332l-2.2347-1.41273c.9504-2.26038 3.0823-3.85291 5.5482-3.85291 3.2621 0 5.805 2.10625 5.805 5.23995 0 2.72271-1.9007 4.70051-4.1868 7.01231l-2.1833 2.209h6.3701z"/></g></svg>