<?xml version="1.0" encoding="UTF-8"?><svg id="Layer_2" xmlns="http://www.w3.org/2000/svg" viewBox="0 0 218.6 61.85"><defs><style>.cls-1{fill:#0e8986;}</style></defs><g id="FINAL"><g id="_1_-_Horizontal_Variant_Light_Theme"><g id="Heads"><g id="Head_R"><path class="cls-1" d="M72.4,27.76c-1.3,0-2.35,.03-3.4,0-2.95-.11-4.76-2.58-3.63-5.26,2.23-5.27,4.64-10.47,7.07-15.66,.05-.1,.12-.18,.22-.26,.65-.51,1.62-.11,1.8,.69,.06,.28,.08,.54-.01,.75-2.02,4.72-4.17,9.39-6.28,14.08-1.19,2.64-.82,3.21,2.1,3.25,5.27,.08,4.49-.61,4.55,4.7,.01,.93,0,1.86,0,3.03,2.24,0,4.3,.08,6.34-.03,1.62-.09,2.22,.65,2.36,2.14,.39,4.19-.99,7.54-4.57,9.89-.48,.32-.97,.62-1.58,1,1.41,2.94,3.68,4.51,6.82,4.68,2.3,.13,4.61,.04,6.92,.05,.94,0,1.9,.08,1.84,1.34-.06,1.19-1.04,1.08-1.87,1.08-2.31,0-4.62,.05-6.92-.03-4.27-.14-7.84-2.8-9.32-6.78-.48-1.29-.29-2.06,1.13-2.59,3.01-1.13,4.83-3.28,5.18-6.57,.14-1.26-.19-1.88-1.61-1.78-1.41,.11-2.84,.03-4.26,.02q-2.89,0-2.89-2.82c0-1.53,0-3.06,0-4.93Z"/><path class="cls-1" d="M50.58,40.29c-.03-3.38,.72-6.58,2.25-9.56,.05-.09,.11-.17,.18-.24,.75-.77,2.13-.16,2.02,.91,0,.09-.03,.18-.06,.26-3.7,8.75-2.28,16.48,4.41,23.23,.64,.64,1.24,1.42,.31,2.04-.43,.28-1.6,.02-2.06-.4-4.7-4.37-7-9.82-7.06-16.22Z"/><path class="cls-1" d="M56.94,45.39c-.95-3.19-.9-6.6-.04-9.81,.17-.64,.37-1.31,.58-1.98,.03-.1,.1-.2,.2-.28,.71-.64,1.89-.17,1.99,.78,.01,.14,0,.26-.04,.38-2.2,6.02-1.14,11.35,3.06,16.15,.08,.09,.13,.21,.16,.34,.21,.91-.7,1.71-1.59,1.4-.14-.05-.27-.12-.36-.21-1.88-1.95-3.18-4.14-3.96-6.76Z"/><path class="cls-1" d="M64.12,36.03c.23,.27,.34,.62,.29,.96-.15,1.23-.29,2.15-.33,3.07-.09,2.26,.75,4.22,1.95,6.11,.07,.12,.11,.26,.13,.42,.08,.91-.84,1.64-1.68,1.26-.11-.05-.2-.11-.27-.2-2.5-3.3-2.96-6.95-2.07-10.99,.18-.81,.71-.91,1.18-.93,.22,0,.61,.09,.8,.31Z"/><path class="cls-1" d="M84.42,10.32c1.63,.04,2.86,1.39,2.78,3.02-.08,1.57-1.33,2.73-2.91,2.69-1.66-.04-2.85-1.34-2.77-3,.08-1.56,1.35-2.75,2.9-2.71Z"/></g><g id="Head_L"><path class="cls-1" d="M20.55,27.96c1.3,0,2.35,.03,3.4,0,2.95-.11,4.76-2.58,3.63-5.26-2.23-5.27-4.64-10.47-7.07-15.66-.05-.1-.12-.18-.22-.26-.65-.51-1.62-.11-1.8,.69-.06,.28-.08,.54,.01,.75,2.02,4.72,4.17,9.39,6.28,14.08,1.19,2.64,.82,3.21-2.1,3.25-5.27,.08-4.49-.61-4.55,4.7-.01,.93,0,1.86,0,3.03-2.24,0-4.3,.08-6.34-.03-1.62-.09-2.22,.65-2.36,2.14-.39,4.19,.99,7.54,4.57,9.89,.48,.32,.97,.62,1.58,1-1.41,2.94-3.68,4.51-6.82,4.68-2.3,.13-4.61,.04-6.92,.05-.94,0-1.9,.08-1.84,1.34,.06,1.19,1.04,1.08,1.87,1.08,2.31,0,4.62,.05,6.92-.03,4.27-.14,7.84-2.8,9.32-6.78,.48-1.29,.29-2.06-1.13-2.59-3.01-1.13-4.83-3.28-5.18-6.57-.14-1.26,.19-1.88,1.61-1.78,1.41,.11,2.84,.03,4.26,.02q2.89,0,2.89-2.82c0-1.53,0-3.06,0-4.93Z"/><path class="cls-1" d="M42.38,40.49c.03-3.38-.72-6.58-2.25-9.56-.05-.09-.11-.17-.18-.24-.75-.77-2.13-.16-2.02,.91,0,.09,.03,.18,.06,.26,3.7,8.75,2.28,16.48-4.41,23.23-.64,.64-1.24,1.42-.31,2.04,.43,.28,1.6,.02,2.06-.4,4.7-4.37,7-9.82,7.06-16.22Z"/><path class="cls-1" d="M36.01,45.59c.95-3.19,.9-6.6,.04-9.81-.17-.64-.37-1.31-.58-1.98-.03-.1-.1-.2-.2-.28-.71-.64-1.89-.17-1.99,.78-.01,.14,0,.26,.04,.38,2.2,6.02,1.14,11.35-3.06,16.15-.08,.09-.13,.21-.16,.34-.21,.91,.7,1.71,1.59,1.4,.14-.05,.27-.12,.36-.21,1.88-1.95,3.18-4.14,3.96-6.76Z"/><path class="cls-1" d="M28.83,36.23c-.23,.27-.34,.62-.29,.96,.15,1.23,.29,2.15,.33,3.07,.09,2.26-.75,4.22-1.95,6.11-.07,.12-.11,.26-.13,.42-.08,.91,.84,1.64,1.68,1.26,.11-.05,.2-.11,.27-.2,2.5-3.3,2.96-6.95,2.07-10.99-.18-.81-.71-.91-1.18-.93-.22,0-.61,.09-.8,.31Z"/><path class="cls-1" d="M8.53,10.52c-1.63,.04-2.86,1.39-2.78,3.02,.08,1.57,1.33,2.73,2.91,2.69,1.66-.04,2.85-1.34,2.77-3-.08-1.56-1.35-2.75-2.9-2.71Z"/></g></g><g><path class="cls-1" d="M103.94,37.41c0-.45,.02-.81,.07-1.09,.04-.28,.14-.49,.29-.64s.36-.24,.64-.29c.28-.04,.64-.06,1.09-.06h5.2c1.16,0,2.17,.1,3.03,.31,.86,.21,1.56,.56,2.11,1.05,.55,.49,.95,1.14,1.22,1.94,.27,.8,.4,1.78,.4,2.94v9.36c0,1.18-.13,2.16-.4,2.95-.27,.79-.68,1.43-1.22,1.92s-1.25,.85-2.11,1.05c-.86,.21-1.87,.31-3.03,.31h-5.2c-.45,0-.81-.02-1.09-.07-.28-.04-.49-.14-.64-.29-.15-.15-.24-.36-.29-.64-.04-.28-.07-.64-.07-1.09v-17.68Zm11.96,4.16c0-.71-.07-1.33-.22-1.86-.15-.53-.4-.96-.75-1.3-.36-.34-.84-.59-1.44-.75s-1.36-.25-2.26-.25h-.52c-.45,0-.81,.02-1.09,.06-.28,.04-.49,.14-.64,.29-.15,.15-.24,.36-.29,.64-.04,.28-.06,.65-.06,1.12v13.49c0,.45,.02,.82,.06,1.09,.04,.28,.14,.49,.29,.64s.36,.24,.62,.29c.27,.04,.64,.06,1.1,.06h.52c.9,0,1.66-.08,2.26-.25,.61-.16,1.09-.42,1.44-.75,.35-.34,.61-.77,.75-1.3s.22-1.15,.22-1.86v-9.36Z"/><path class="cls-1" d="M120.06,39.49c0-.97,.03-1.73,.1-2.29s.24-.97,.52-1.25c.28-.28,.69-.45,1.25-.52,.55-.07,1.32-.1,2.29-.1h5.72c.66,0,1.08,.07,1.27,.22,.19,.15,.29,.42,.29,.82s-.09,.67-.29,.82c-.19,.15-.62,.22-1.27,.22h-5.72c-.45,0-.82,.02-1.09,.06-.28,.04-.49,.14-.64,.29-.15,.15-.24,.36-.29,.64-.04,.28-.06,.64-.06,1.09v3.64c0,.45,.02,.82,.06,1.09,.04,.28,.14,.49,.29,.64s.36,.24,.64,.29c.28,.04,.64,.07,1.09,.07h5.72c.66,0,1.08,.07,1.27,.22,.19,.15,.29,.42,.29,.82s-.09,.67-.29,.82c-.19,.15-.62,.22-1.27,.22h-3.12c-.45,0-.82,.02-1.09,.06-.28,.04-.49,.14-.64,.29-.15,.15-.24,.36-.29,.64-.04,.28-.07,.64-.07,1.09v3.64c0,.45,.02,.82,.07,1.09,.04,.28,.14,.49,.29,.64s.36,.24,.64,.29c.28,.04,.64,.06,1.09,.06h3.12c.66,0,1.08,.07,1.27,.22,.19,.15,.29,.42,.29,.82s-.09,.67-.29,.82c-.19,.15-.62,.22-1.27,.22h-5.72c-.97,0-1.73-.03-2.29-.1-.56-.07-.97-.24-1.25-.52-.28-.28-.45-.69-.52-1.25s-.1-1.32-.1-2.29v-13.52Z"/><path class="cls-1" d="M138.73,54.05c.29,.45,.51,.73,.65,.84,.14,.11,.3,.17,.49,.17s.35-.04,.47-.13c.12-.09,.3-.25,.55-.49,.19-.19,.32-.38,.39-.56s.1-.47,.1-.87v-15.6c0-.45,.02-.81,.07-1.09,.04-.28,.14-.49,.29-.64s.36-.24,.64-.29c.28-.04,.64-.06,1.09-.06h.52c.45,0,.81,.02,1.09,.06,.28,.04,.49,.14,.64,.29,.15,.15,.24,.36,.29,.64s.07,.64,.07,1.09v12.74c0,.52-.04,1-.12,1.43s-.3,.82-.66,1.17l-3.02,2.86c-.61,.59-1.1,1.01-1.47,1.27s-.76,.39-1.16,.39c-.24,0-.46-.03-.64-.08-.18-.05-.36-.14-.52-.26-.17-.12-.33-.29-.51-.51-.17-.22-.36-.49-.57-.82l-2.78-4.37c-.23-.35-.4-.64-.53-.88-.13-.24-.23-.48-.31-.72-.08-.23-.13-.49-.16-.77-.03-.28-.04-.63-.04-1.07v-10.92c0-.66,.07-1.08,.22-1.27,.15-.19,.42-.29,.82-.29s.67,.1,.82,.29c.15,.19,.22,.62,.22,1.27v10.92c0,.35,0,.62,.01,.83s.04,.39,.08,.56,.11,.32,.2,.47,.2,.33,.34,.56l2.44,3.82Z"/><path class="cls-1" d="M157.5,39.49c0-.97,.03-1.73,.1-2.29s.24-.97,.52-1.25c.28-.28,.69-.45,1.25-.52,.55-.07,1.32-.1,2.29-.1h3.64c.97,0,1.73,.04,2.29,.1,.55,.07,.97,.24,1.25,.52,.28,.28,.45,.69,.52,1.25s.1,1.32,.1,2.29v1.3c0,.4-.02,.71-.07,.95-.04,.23-.13,.42-.26,.55s-.31,.22-.55,.26c-.23,.04-.54,.07-.92,.07h-1.07c-.4,0-.71-.02-.95-.07-.23-.04-.42-.13-.55-.26s-.22-.31-.26-.55c-.04-.23-.07-.55-.07-.95v-1.27c0-.47-.02-.84-.06-1.12-.04-.28-.14-.49-.29-.64-.15-.15-.36-.24-.64-.29-.28-.04-.64-.06-1.09-.06h-1.04c-.45,0-.82,.02-1.09,.06-.28,.04-.49,.14-.64,.29-.15,.15-.24,.36-.29,.64-.04,.28-.06,.64-.06,1.09v13.52c0,.45,.02,.82,.06,1.09,.04,.28,.14,.49,.29,.64s.36,.24,.64,.29c.28,.04,.64,.06,1.09,.06h3.64c.45,0,.81-.02,1.09-.06,.28-.04,.49-.14,.64-.29s.24-.36,.29-.64c.04-.28,.07-.64,.07-1.09v-1.56c0-.33,.01-.59,.04-.79,.03-.2,.07-.36,.14-.47,.07-.11,.17-.19,.3-.23s.31-.07,.53-.07c.45,0,.74,.1,.87,.29,.13,.19,.2,.62,.2,1.27v1.56c0,.97-.04,1.73-.1,2.29s-.24,.97-.52,1.25c-.28,.28-.69,.45-1.25,.52s-1.32,.1-2.29,.1h-3.64c-.97,0-1.73-.03-2.29-.1-.56-.07-.97-.24-1.25-.52-.28-.28-.45-.69-.52-1.25s-.1-1.32-.1-2.29v-13.52Z"/><path class="cls-1" d="M182.98,49.37c0-.45-.02-.81-.06-1.09-.04-.28-.14-.49-.29-.64-.15-.15-.36-.24-.64-.29-.28-.04-.64-.06-1.09-.06h-2.6c-.45,0-.82,.02-1.09,.06-.28,.04-.49,.14-.64,.29-.15,.15-.24,.36-.29,.64-.04,.28-.07,.64-.07,1.09v5.72c0,.45-.02,.82-.07,1.09-.04,.28-.14,.49-.29,.64-.15,.15-.36,.24-.64,.29-.28,.04-.64,.07-1.09,.07h-.52c-.45,0-.82-.02-1.09-.07-.28-.04-.49-.14-.64-.29s-.24-.36-.29-.64c-.04-.28-.06-.64-.06-1.09v-18.46c0-.52,.07-.87,.22-1.04,.15-.17,.42-.26,.82-.26s.67,.09,.82,.26c.15,.17,.22,.52,.22,1.04v6.5c0,.45,.02,.82,.06,1.09,.04,.28,.14,.49,.29,.64s.36,.24,.64,.29c.28,.04,.65,.07,1.12,.07h5.17c.45,0,.81-.02,1.09-.07,.28-.04,.49-.14,.64-.29,.15-.15,.24-.36,.29-.64,.04-.28,.06-.64,.06-1.09v-6.5c0-.52,.07-.87,.22-1.04,.15-.17,.42-.26,.82-.26s.67,.09,.82,.26c.15,.17,.22,.52,.22,1.04v18.98c0,.66-.07,1.08-.22,1.27-.15,.19-.42,.29-.82,.29s-.67-.09-.82-.29c-.15-.19-.22-.62-.22-1.27v-6.24Z"/><path class="cls-1" d="M191.82,55.09c0,.45-.02,.82-.07,1.09-.04,.28-.14,.49-.29,.64-.15,.15-.36,.24-.64,.29-.28,.04-.64,.07-1.09,.07h-.52c-.45,0-.82-.02-1.09-.07-.28-.04-.49-.14-.64-.29s-.24-.36-.29-.64c-.04-.28-.06-.64-.06-1.09v-6.5c0-.33,.03-.59,.1-.79s.16-.36,.27-.49c.11-.13,.25-.23,.4-.31,.16-.08,.33-.15,.52-.22,.17-.07,.34-.14,.51-.21,.17-.07,.3-.17,.42-.3,.11-.13,.2-.3,.27-.51,.07-.21,.1-.48,.1-.81v-5.46c0-.97,.03-1.73,.1-2.29,.07-.55,.24-.97,.52-1.25s.69-.45,1.25-.52c.55-.07,1.32-.1,2.29-.1h3.38c.97,0,1.73,.04,2.29,.1,.55,.07,.97,.24,1.25,.52s.45,.69,.52,1.25,.1,1.32,.1,2.29v16.12c0,.66-.07,1.09-.22,1.29-.15,.2-.42,.3-.82,.3s-.67-.1-.82-.3c-.15-.2-.22-.63-.22-1.29v-6.24c0-.45-.02-.81-.07-1.09-.04-.28-.14-.49-.29-.64-.15-.15-.36-.24-.64-.29-.28-.04-.64-.06-1.09-.06h-3.38c-.45,0-.82,.02-1.09,.06-.28,.04-.49,.14-.64,.3-.15,.16-.24,.37-.29,.65-.04,.28-.07,.65-.07,1.12v5.67Zm7.54-15.6c0-.45-.02-.81-.07-1.09-.04-.28-.14-.49-.29-.64-.15-.15-.36-.24-.64-.29-.28-.04-.64-.06-1.09-.06h-3.38c-.45,0-.82,.02-1.09,.06-.28,.04-.49,.14-.64,.29-.15,.15-.24,.36-.29,.64-.04,.28-.07,.64-.07,1.09v3.64c0,.45,.02,.82,.07,1.09,.04,.28,.14,.49,.29,.64s.36,.24,.64,.29c.28,.04,.64,.07,1.09,.07h3.38c.45,0,.81-.02,1.09-.07,.28-.04,.49-.14,.64-.29,.15-.15,.24-.36,.29-.64,.04-.28,.07-.64,.07-1.09v-3.64Z"/><path class="cls-1" d="M203.26,36.39c0-.4,.1-.68,.29-.83,.19-.16,.62-.23,1.27-.23h11.44c.66,0,1.08,.08,1.27,.23,.19,.16,.29,.43,.29,.83s-.1,.65-.29,.79c-.19,.15-.62,.22-1.27,.22h-1.04c-.45,0-.82,.02-1.09,.06-.28,.04-.49,.14-.64,.29-.15,.15-.24,.36-.29,.64-.04,.28-.06,.64-.06,1.09v15.6c0,.45-.02,.82-.07,1.09-.04,.28-.14,.49-.3,.64s-.39,.24-.69,.29c-.3,.04-.71,.07-1.23,.07s-.96-.02-1.27-.07c-.31-.04-.55-.14-.71-.29-.17-.15-.27-.36-.33-.64-.05-.28-.08-.64-.08-1.09v-15.6c0-.45-.02-.81-.06-1.09-.04-.28-.14-.49-.29-.64-.15-.15-.36-.24-.64-.29-.28-.04-.64-.06-1.09-.06h-1.56c-.66,0-1.08-.07-1.27-.22-.19-.15-.29-.41-.29-.79Z"/></g><g><path class="cls-1" d="M109.19,21.84c-.14,.49-.27,.87-.4,1.14s-.28,.49-.44,.62c-.16,.14-.37,.22-.62,.26-.25,.04-.57,.05-.95,.05h-1.09c-.45,0-.82-.02-1.09-.07-.28-.04-.49-.14-.64-.29s-.24-.36-.29-.64c-.04-.28-.06-.64-.06-1.09V4.16c0-.45,.02-.81,.06-1.09s.14-.49,.29-.64c.15-.15,.36-.24,.64-.29,.28-.04,.64-.06,1.09-.06h.52c.45,0,.81,.02,1.09,.06,.28,.04,.49,.14,.64,.29s.24,.36,.29,.64,.07,.64,.07,1.09v11.96c0,.42,.08,.62,.23,.62,.09,0,.16-.04,.21-.1,.05-.07,.11-.22,.18-.47l1.2-4c.14-.5,.33-.87,.57-1.09s.5-.34,.78-.34c.24,0,.48,.09,.73,.29,.24,.19,.45,.47,.62,.83l4.29,9.23c.22,.47,.48,.7,.78,.7,.16,0,.29-.08,.39-.23,.1-.16,.16-.41,.16-.75V3.64c0-.66,.07-1.08,.22-1.27,.15-.19,.42-.29,.82-.29s.67,.1,.82,.29,.22,.62,.22,1.27V21.84c0,.45-.02,.82-.07,1.09-.04,.28-.14,.49-.29,.64-.15,.15-.36,.24-.64,.29-.28,.04-.64,.07-1.09,.07h-.88c-.36,0-.65-.01-.85-.04s-.36-.09-.49-.2c-.13-.1-.25-.25-.36-.46-.11-.2-.25-.48-.4-.84l-3.64-7.83c-.09-.14-.17-.21-.26-.21s-.16,.08-.21,.23l-2.13,7.25Zm6.37-15.34c0,.45-.02,.81-.06,1.09s-.14,.49-.29,.64c-.15,.15-.36,.24-.64,.29-.28,.04-.64,.07-1.09,.07h-.52c-.45,0-.81-.02-1.09-.07-.28-.04-.49-.14-.64-.29-.15-.15-.24-.36-.29-.64-.04-.28-.06-.64-.06-1.09v-2.34c0-.45,.02-.81,.06-1.09,.04-.28,.14-.49,.29-.64,.15-.15,.36-.24,.64-.29,.28-.04,.64-.06,1.09-.06h.52c.45,0,.81,.02,1.09,.06,.28,.04,.49,.14,.64,.29,.15,.15,.24,.36,.29,.64s.06,.64,.06,1.09v2.34Z"/><path class="cls-1" d="M122.58,6.24c0-.97,.03-1.73,.1-2.29,.07-.55,.24-.97,.52-1.25s.69-.45,1.25-.52c.55-.07,1.32-.1,2.29-.1h5.72c.66,0,1.08,.07,1.27,.22,.19,.15,.29,.42,.29,.82s-.1,.67-.29,.82c-.19,.15-.62,.22-1.27,.22h-5.72c-.45,0-.82,.02-1.09,.06-.28,.04-.49,.14-.64,.29-.15,.15-.24,.36-.29,.64-.04,.28-.07,.64-.07,1.09v3.64c0,.45,.02,.82,.07,1.09,.04,.28,.14,.49,.29,.64,.15,.15,.36,.24,.64,.29,.28,.04,.64,.07,1.09,.07h5.72c.66,0,1.08,.07,1.27,.22,.19,.15,.29,.42,.29,.82s-.1,.67-.29,.82c-.19,.15-.62,.22-1.27,.22h-3.12c-.45,0-.82,.02-1.09,.06-.28,.04-.49,.14-.64,.29-.15,.15-.24,.36-.29,.64s-.06,.64-.06,1.09v3.64c0,.45,.02,.82,.06,1.09,.04,.28,.14,.49,.29,.64,.15,.15,.36,.24,.64,.29,.28,.04,.64,.06,1.09,.06h3.12c.66,0,1.08,.07,1.27,.22,.19,.15,.29,.42,.29,.82s-.1,.67-.29,.82c-.19,.15-.62,.22-1.27,.22h-5.72c-.97,0-1.73-.03-2.29-.1s-.97-.24-1.25-.52-.45-.69-.52-1.25c-.07-.55-.1-1.32-.1-2.29V6.24Z"/><path class="cls-1" d="M136.1,6.24c0-.97,.03-1.73,.1-2.29,.07-.55,.24-.97,.52-1.25s.69-.45,1.25-.52c.55-.07,1.32-.1,2.29-.1h5.72c.66,0,1.08,.07,1.27,.22,.19,.15,.29,.42,.29,.82s-.1,.67-.29,.82c-.19,.15-.62,.22-1.27,.22h-5.72c-.45,0-.82,.02-1.09,.06-.28,.04-.49,.14-.64,.29-.15,.15-.24,.36-.29,.64-.04,.28-.07,.64-.07,1.09v3.64c0,.45,.02,.82,.07,1.09,.04,.28,.14,.49,.29,.64,.15,.15,.36,.24,.64,.29,.28,.04,.64,.07,1.09,.07h5.72c.66,0,1.08,.07,1.27,.22,.19,.15,.29,.42,.29,.82s-.1,.67-.29,.82c-.19,.15-.62,.22-1.27,.22h-3.12c-.45,0-.82,.02-1.09,.06-.28,.04-.49,.14-.64,.29-.15,.15-.24,.36-.29,.64s-.06,.64-.06,1.09v3.64c0,.45,.02,.82,.06,1.09,.04,.28,.14,.49,.29,.64,.15,.15,.36,.24,.64,.29,.28,.04,.64,.06,1.09,.06h3.12c.66,0,1.08,.07,1.27,.22,.19,.15,.29,.42,.29,.82s-.1,.67-.29,.82c-.19,.15-.62,.22-1.27,.22h-5.72c-.97,0-1.73-.03-2.29-.1s-.97-.24-1.25-.52-.45-.69-.52-1.25c-.07-.55-.1-1.32-.1-2.29V6.24Z"/><path class="cls-1" d="M159.76,16.12c0-.45-.02-.81-.07-1.09s-.14-.49-.29-.64c-.15-.15-.36-.24-.64-.29-.28-.04-.64-.06-1.09-.06h-1.3c-.45,0-.82,.02-1.09,.06-.28,.04-.49,.14-.64,.29-.15,.15-.24,.36-.29,.64s-.06,.64-.06,1.09v5.72c0,.45-.02,.82-.07,1.09-.04,.28-.14,.49-.29,.64-.15,.15-.36,.24-.64,.29-.28,.04-.64,.07-1.09,.07h-.52c-.45,0-.82-.02-1.09-.07-.28-.04-.49-.14-.64-.29s-.24-.36-.29-.64c-.04-.28-.06-.64-.06-1.09V3.64c0-.66,.07-1.08,.22-1.27,.15-.19,.42-.29,.82-.29s.67,.1,.82,.29,.22,.62,.22,1.27v6.24c0,.66,.16,1.04,.47,1.13,.31,.1,.73-.11,1.25-.61l7.64-7.31c.19-.17,.36-.33,.51-.46s.3-.23,.47-.3c.17-.07,.35-.12,.55-.16,.2-.03,.45-.05,.74-.05,.4,0,.66,.06,.79,.17,.13,.11,.2,.24,.2,.38,0,.21-.17,.48-.49,.81l-7.25,6.92c-.55,.52-.81,.91-.78,1.17,.03,.26,.45,.39,1.25,.39h5.33c.45,0,.81,.02,1.08,.07,.27,.04,.48,.14,.62,.29,.15,.15,.25,.36,.3,.64,.05,.28,.08,.64,.08,1.09v7.8c0,.45-.02,.82-.07,1.09-.04,.28-.14,.49-.29,.64-.15,.15-.36,.24-.64,.29-.28,.04-.64,.07-1.09,.07h-.52c-.45,0-.81-.02-1.09-.07-.28-.04-.49-.14-.64-.29s-.24-.36-.29-.64c-.04-.28-.07-.64-.07-1.09v-5.72Z"/><path class="cls-1" d="M168.6,23.92c-.45,0-.81-.02-1.09-.07-.28-.04-.49-.14-.64-.29-.15-.15-.24-.36-.29-.64-.04-.28-.07-.64-.07-1.09v-6.24c0-.33,.04-.59,.1-.79,.07-.2,.16-.36,.27-.49,.11-.13,.25-.23,.4-.31,.16-.08,.33-.15,.52-.22,.17-.07,.34-.14,.51-.21s.3-.17,.42-.3c.11-.13,.2-.3,.27-.51s.1-.48,.1-.81V3.64c0-.66,.07-1.08,.22-1.27s.42-.29,.82-.29,.67,.1,.82,.29c.15,.19,.22,.62,.22,1.27V19.76c0,.45,.02,.82,.07,1.09,.04,.28,.14,.49,.29,.64s.36,.24,.64,.29c.28,.04,.64,.06,1.09,.06h3.12c.66,0,1.08,.08,1.27,.23,.19,.16,.29,.44,.29,.86,0,.36-.09,.62-.29,.77s-.62,.22-1.27,.22h-7.8Z"/><path class="cls-1" d="M191.84,10.32c0,.26-.01,.48-.04,.65-.03,.17-.07,.33-.14,.47-.07,.14-.18,.28-.32,.43-.15,.15-.33,.31-.56,.48l-1.53,1.14c-.4,.29-.68,.62-.83,.97-.16,.36-.24,.74-.26,1.16v6.21c0,.45-.02,.82-.06,1.09-.04,.28-.14,.49-.29,.64-.15,.15-.36,.24-.64,.29-.28,.04-.64,.07-1.09,.07h-.52c-.45,0-.82-.02-1.09-.07-.28-.04-.49-.14-.64-.29s-.24-.36-.29-.64c-.04-.28-.06-.64-.06-1.09v-6.08c0-.45-.08-.87-.25-1.25-.16-.38-.45-.72-.84-1.01l-1.54-1.14c-.24-.17-.43-.33-.57-.48-.14-.15-.24-.29-.31-.43-.07-.14-.12-.29-.14-.47-.03-.17-.04-.39-.04-.65V3.64c0-.66,.07-1.08,.22-1.27,.15-.19,.42-.29,.82-.29s.67,.1,.82,.29c.15,.19,.22,.62,.22,1.27v5.43c0,.61,.03,1.04,.1,1.29,.07,.25,.2,.46,.39,.61l1.9,1.51c.31,.24,.59,.41,.82,.51,.23,.09,.48,.14,.74,.14s.51-.05,.74-.14c.23-.1,.51-.26,.82-.51l1.9-1.51c.19-.16,.32-.36,.39-.61,.07-.25,.1-.68,.1-1.29V3.64c0-.66,.07-1.08,.22-1.27s.42-.29,.82-.29,.67,.1,.82,.29,.22,.62,.22,1.27v6.68Z"/></g></g></g></svg>